<?xml version="1.0" encoding="UTF-8" standalone="no"?>
<!-- Created with Inkscape (http://www.inkscape.org/) -->

<svg
   width="70"
   height="70"
   viewBox="0 0 234.65878 228.73593"
   version="1.1"
   id="svg1"
   sodipodi:docname="metar.svg"
   inkscape:version="1.4 (e7c3feb100, 2024-10-09)"
   xmlns:inkscape="http://www.inkscape.org/namespaces/inkscape"
   xmlns:sodipodi="http://sodipodi.sourceforge.net/DTD/sodipodi-0.dtd"
   xmlns="http://www.w3.org/2000/svg"
   xmlns:svg="http://www.w3.org/2000/svg">
  <sodipodi:namedview
     id="namedview1"
     pagecolor="#ffffff"
     bordercolor="#666666"
     borderopacity="1.0"
     inkscape:showpageshadow="2"
     inkscape:pageopacity="0.0"
     inkscape:pagecheckerboard="0"
     inkscape:deskcolor="#d1d1d1"
     inkscape:document-units="mm"
     inkscape:zoom="0.50144841"
     inkscape:cx="304.11902"
     inkscape:cy="548.41135"
     inkscape:window-width="1920"
     inkscape:window-height="1136"
     inkscape:window-x="0"
     inkscape:window-y="22"
     inkscape:window-maximized="1"
     inkscape:current-layer="layer1" />
  <defs
     id="defs1" />
  <g
     inkscape:label="Слой 1"
     inkscape:groupmode="layer"
     id="layer1"
     transform="translate(-24.077082,-3.7041674)">
    <path
       style="fill:#639dcc;stroke:none"
       d="m 63.053682,4.031326 c -3.70551,0.486534 -7.41607,0.320959 -11.1125,1.121217 -10.185036,2.205034 -19.332394,8.739631 -23.730833,18.345666 -3.610758,7.885758 -3.785828,16.890651 -3.785828,25.399998 v 23.28333 97.895833 c 0,15.76339 -2.804233,35.64646 7.520822,48.94791 12.43173,16.0154 34.331979,13.22917 52.275009,13.22917 h 94.456238 29.63334 c 7.12672,0 14.38407,0.27561 21.43125,-0.90889 15.9071,-2.67369 26.04364,-15.35502 27.97049,-30.84111 1.87272,-15.05092 0.6045,-30.87496 0.6045,-46.0375 V 70.329457 c 0,-9.75837 0.42519,-19.64218 -0.24091,-29.368749 C 257.50208,32.590677 256.24644,24.55047 250.99929,17.677376 238.89192,1.818267 218.38702,3.919043 200.63701,3.919043 h -92.075 -29.897908 c -5.09804,0 -10.55621,-0.551339 -15.61042,0.112283 m -2.64583,31.108549 9.525,30.427082 h 0.26458 c 1.00231,-7.43709 4.64602,-15.06061 6.87244,-22.225 0.59513,-1.915095 1.19879,-6.700494 2.83834,-7.930151 0.71681,-0.537613 2.14737,-0.271931 2.98922,-0.271931 h 7.14375 v 45.243752 h -8.20208 v -29.89792 h -0.26458 c -0.89247,6.04293 -3.97952,12.20315 -5.90903,17.99167 -0.63059,1.89176 -1.10906,5.55424 -2.51619,6.9841 -0.83393,0.84738 -5.00713,0.74393 -6.05419,0.26458 -1.54038,-0.70519 -2.13324,-4.69913 -2.63032,-6.19035 -2.03152,-6.09456 -5.2357,-12.69924 -6.17361,-19.05 h -0.26458 v 29.89792 H 49.82452 V 35.139875 h 10.583332 m 62.441658,0 -0.27193,7.248682 -3.9614,0.42423 h -11.1125 v 11.1125 h 12.43542 v 7.40834 h -12.43542 v 11.37708 h 15.875 v 7.67292 H 98.772432 V 35.139875 h 24.077078 m 35.71875,0 -0.27193,7.248682 -2.90307,0.42423 h -7.67291 v 37.57084 h -8.99584 c 0,-8.37528 0.22444,-16.77156 0.11637,-25.1393 -0.0497,-3.8455 -0.94831,-8.72189 0.14822,-12.43154 h -10.84792 v -7.672912 h 30.42708 m 22.48958,0 13.49375,45.243752 h -6.61458 c -0.78303,-5e-5 -2.03322,0.22448 -2.62235,-0.42424 -1.8547,-2.04233 -0.56906,-7.29456 -3.0076,-8.82883 -0.86842,-0.5464 -2.38485,-0.27193 -3.36588,-0.27193 -2.87371,0 -5.86562,-0.24166 -8.72717,0.0155 -3.19883,0.28748 -2.1172,7.19583 -3.93425,9.08525 -0.57616,0.59909 -1.67014,0.42389 -2.41983,0.42423 h -6.61458 l 10.14154,-33.3375 2.565,-8.466668 1.23777,-3.167652 2.72443,-0.271931 h 7.14375 m 41.80417,27.252081 10.05416,17.99167 c -2.51199,0 -7.15211,0.9096 -9.42169,-0.15965 -1.23373,-0.58123 -1.84977,-3.18122 -2.42004,-4.33827 -2.03489,-4.1287 -4.38098,-8.18666 -6.14993,-12.43542 h -5.55625 v 16.93334 h -8.99583 V 35.139875 c 7.97543,0 19.32262,-2.066815 26.19375,2.854477 8.46508,6.062935 5.87388,21.136125 -3.70417,24.397605 m -13.49375,-19.84375 v 13.75833 c 3.4505,-0.82147 7.49657,0.73074 10.58231,-1.49175 3.6065,-2.59755 3.65372,-9.39392 -0.52835,-11.51549 -2.85073,-1.446186 -6.95258,-0.75109 -10.05396,-0.75109 m -33.60208,3.43958 -4.7625,17.4625 h 9.78958 l -3.3273,-11.90625 -1.69978,-5.55625 M 146.39743,161.6107 c -6.53135,5.17969 -13.42946,9.92801 -20.10833,14.91569 -2.23354,1.66795 -6.60134,3.80411 -7.93016,6.27486 -0.7876,1.46446 0.0895,4.20585 0.23743,5.79695 0.35233,3.7893 0.70162,7.59923 1.15368,11.37708 0.25131,2.10019 0.9428,4.80026 0.31766,6.87917 -0.7354,2.44558 -7.05299,7.77631 -9.51274,5.21796 -2.08533,-2.16891 -3.37905,-6.44253 -4.60204,-9.18671 -1.95764,-4.39261 -4.54132,-8.53204 -6.386748,-12.96459 -2.00104,1.18008 -4.51689,3.04021 -6.87916,3.29116 -1.96542,0.20879 -3.22269,-1.43119 -2.8059,-3.29116 0.44142,-1.96987 3.75511,-3.86011 3.60862,-5.79695 -0.10789,-1.42657 -3.68819,-3.29358 -4.77147,-4.0694 -4.32933,-3.10057 -8.64231,-6.22588 -12.96459,-9.33696 -1.53281,-1.1033 -3.90477,-2.78709 -2.26651,-4.82884 1.26939,-1.58206 4.23786,-4.76128 6.23526,-5.25228 1.89826,-0.46662 4.53095,0.64555 6.35,1.16183 4.11051,1.16666 8.29014,2.11663 12.43542,3.15297 1.841848,0.46046 4.722788,1.76645 6.614578,1.40395 2.44067,-0.46767 5.54248,-4.45748 7.40833,-6.06765 6.06127,-5.23072 12.2271,-10.34388 18.25625,-15.61041 -4.33377,-1.8321 -8.3388,-5.87865 -12.17083,-8.61815 -8.01113,-5.7271 -16.05665,-11.40771 -24.077078,-17.1234 -3.17536,-2.2629 -6.31947,-4.57576 -9.525,-6.79566 -1.52609,-1.05685 -3.82788,-2.14982 -4.86744,-3.72132 -0.71039,-1.0739 -0.28015,-2.24268 0.46057,-3.16337 1.65283,-2.05445 5.88743,-6.920617 8.6402,-7.105577 1.99211,-0.13384 4.22169,0.86239 6.08542,1.45726 3.33123,1.063277 6.690708,2.081177 10.054158,3.038627 13.19046,3.75484 26.28743,7.85399 39.42292,11.79498 3.88159,1.16458 7.76815,2.31611 11.64167,3.50717 1.46066,0.44913 3.76801,1.57538 5.29166,1.37191 1.12999,-0.15093 2.08255,-1.30832 2.91042,-2.00317 1.94014,-1.62839 3.89979,-3.23308 5.82083,-4.88398 7.8511,-6.74706 16.12867,-14.975517 26.19375,-18.19969 4.13764,-1.32542 10.25674,-1.87673 13.40658,1.771643 3.65053,4.228317 0.0805,10.960817 -2.47067,14.806057 -5.32474,8.02574 -13.58991,13.989 -20.99008,20.00543 -2.2178,1.80312 -4.41124,3.63993 -6.61458,5.46072 -0.83556,0.69049 -2.12792,1.4646 -2.41066,2.5807 -0.38959,1.53791 0.33117,3.73401 0.51754,5.29065 0.48594,4.05876 0.95838,8.12198 1.51604,12.17083 1.63585,11.87673 2.9578,23.81447 4.38687,35.71875 0.51397,4.28144 2.6488,10.62889 1.33373,14.81667 -0.83107,2.64651 -4.82138,4.47052 -6.93102,6.05194 -0.88512,0.6635 -1.83002,1.58273 -2.91042,1.90618 -0.97321,0.29136 -1.90438,-0.19035 -2.58949,-0.87093 -1.4065,-1.39722 -2.15519,-3.74594 -3.03208,-5.49969 l -5.55625,-11.1125 c -5.9057,-11.8114 -12.85614,-23.54075 -17.92634,-35.71875 z"
       id="path1"
       sodipodi:nodetypes="ccsscssscsssssssscsccccssscccccssscccccccccccccccccccccccccccccccccccssssscccccccccsscccccscccsscccccccssssssscssssssssssscsssssssssssssssssssssssssscsc" />
  </g>
</svg>
